<svg xmlns="http://www.w3.org/2000/svg" xmlns:xlink="http://www.w3.org/1999/xlink" width="294" height="71" viewBox="0 0 294 71"><defs><path id="f0ska" d="M153.88 91.29c-.19.84.02 1.7-.18 2.51-.57 2.35-.93 4.54-1.8 6.53-3.24 7.5-8.47 12.02-16.1 15.16-1.51.62-3.26.78-4.97 1.2-.81.2-1.71.05-2.51.23-.73.17-2.94.02-3.54-.12-.95-.21-1.8-.06-2.69-.3a38.11 38.11 0 0 1-5.69-1.8c-6.05-2.64-11.24-7.4-13.89-13.41-.56-1.27-.91-2.48-1.37-3.9-.4-1.23-.57-2.68-.9-4.07l-.12-2.03c-.2-.97-.15-2.64.06-3.54l.12-1.62c.41-1.7.57-3.45 1.2-4.97 3.13-7.63 7.65-12.86 15.14-16.11 1.79-.78 3.74-1.16 5.81-1.68l2.33-.3c.3-.07.7.07.9-.06 7.34-.14 12.43 1.89 16.65 4.85 4.29 3.02 7.39 6.78 9.58 11.92.56 1.34 1 2.85 1.43 4.38l.48 2.93v.66c.2.9.28 2.57.06 3.54zm-24.49 18.3c.27.38.8 1.46 1.26 1.56.33-.2.85-.13 1.25-.24.67-.2 1.44-.38 2.04-.66-.34-.34-.86-.5-1.26-.78-.63-.44-1.23-.96-1.85-1.43l-.66-.72c-.17-.13-.36-.2-.48-.36-.64-.85-1.42-1.58-2.03-2.45-.36-.5-.58-1.19-1.02-1.62a15 15 0 0 0 2.75 6.7zM127 96a6 6 0 1 0 0-12 6 6 0 0 0 0 12zm-7.18 14.19c.41.04.74.25 1.08.36l2.33.54v-.06c-.29-.3-.4-.75-.6-1.14-.86-1.67-1.32-3.53-1.85-5.62l-.24-2.21c-.07-.33.09-.79-.06-1.02-.1.7-.46 1.42-.66 2.1-.48 1.65-.58 5.42 0 7.05zm-8-5.26l1.6 1.43v-.84l.3-2.5c.43-1.65.8-3.23 1.44-4.61.16-.35.93-1.9.9-2.04l-1.62 1.44c-1.32 1.74-2.93 3.66-3.53 6.1.37.24.64.67.9 1.02zm-5.15-9.51c.19.66.38 1.43.66 2.03.51-.51.83-1.32 1.25-1.91a18.38 18.38 0 0 1 4.25-4.13c.54-.39 1.1-.98 1.8-1.2v-.05h-.13c-.2.12-.5.04-.78.11-.57.16-1.23.28-1.79.48-1.54.57-2.8 1.29-4 2.16-.38.26-1.41.79-1.5 1.25.2.33.12.85.24 1.26zm2.87-12.5c-.66.14-1.45.25-2.15.3-.27 1.11-.7 2.25-.96 3.47h.06c.3-.3.74-.4 1.13-.6 1.67-.87 3.54-1.33 5.63-1.85l2.2-.24c.33-.08.8.08 1.03-.06-.7-.09-1.43-.46-2.1-.66a14.9 14.9 0 0 0-3.77-.42c-.24.15-.73-.01-1.07.06zm9.75-5.32c-1.54-1.17-3.56-2.65-5.69-3.17-.53.8-2.12 1.59-2.45 2.51h.78c.34.2.94.02 1.38.12l2.09.36c1.27.36 2.55.7 3.7 1.2l2.04 1.01v-.06c-.72-.5-1.15-1.44-1.85-1.97zm6.1-5.15c-.56-.88-1.31-1.67-1.86-2.57h-.18c-.33.2-.85.13-1.25.24-.67.19-1.44.38-2.04.66.5.5 1.55 1 2.16 1.44a17.5 17.5 0 0 1 3.94 4.18c.37.53.93 1.07 1.14 1.74h.06c-.37-2.21-.98-4.1-1.97-5.69zm8.79-1.61c-.41-.05-.74-.25-1.08-.36l-2.33-.54.95 1.8c.56 1.26.93 2.64 1.32 4.06.27 1 .18 2.12.42 3.17.07.33-.09.79.06 1.02.1-.7.46-1.43.66-2.1.48-1.65.58-5.42 0-7.05zm-1.32 30.56c1.3 2 4.9 4.56 7.54 5.2.53-.8 2.12-1.6 2.45-2.51h-1.02c-.33-.2-.9-.03-1.32-.12l-2.5-.48a31.2 31.2 0 0 1-3.42-1.2c-.57-.25-1.12-.69-1.73-.9zm4.66-4.3c.52.06.99.32 1.44.47l2.33.48c1.74.4 3.72-.13 5.32-.24.2-.82.47-1.66.72-2.57.07-.24.27-.69.18-.9-.3.3-.74.4-1.13.6-1.67.87-3.54 1.33-5.63 1.85l-2.2.24c-.33.08-.8-.08-1.03.06zm3.05-22.43c.07 2.73-.66 5.57-1.49 7.53l-1.2 2.45h.06c.5-.71 1.45-1.15 1.98-1.85 1.16-1.54 2.65-3.55 3.17-5.68-.8-.53-1.6-2.12-2.52-2.45zm6.04 8.9c-.24.79-.93 1.42-1.37 2.04a17.17 17.17 0 0 1-4.19 4.07c-.52.37-1.07.92-1.73 1.13v.06h.12c.2-.12.5-.04.78-.12.53-.13 1.14-.22 1.67-.42a16.6 16.6 0 0 0 4.19-2.2c.36-.27 1.4-.87 1.5-1.32-.45-.73-.34-2.73-.97-3.23zM127 88a2 2 0 1 1 0 4 2 2 0 0 1 0-4zm44.11-23.35H180c.76 0 1.08.46 1.08 1.33 0 .75-.32 1.18-1.08 1.18h-1.94c-.76 0-1.08.33-1.08 1.08v18c0 .76.32 1.08 1.08 1.08H180c.76 0 1.08.43 1.08 1.3 0 .75-.32 1.22-1.08 1.22h-8.89c-.76 0-1.08-.47-1.08-1.33 0-.76.32-1.19 1.08-1.19h1.9c.76 0 1.09-.32 1.09-1.08v-18c0-.75-.33-1.08-1.08-1.08h-1.91c-.76 0-1.08-.43-1.08-1.18 0-.87.32-1.33 1.08-1.33zm29.76 7.2c5 0 5 5 5 5v11.91c0 .76-.32 1.08-1.08 1.08h-.64c-.76 0-1.08-.32-1.08-1.08V76.85s0-2.2-2.2-2.2h-2.52c-2.2 0-2.2 2.2-2.2 2.2v11.91c0 .76-.32 1.08-1.08 1.08h-.64c-.76 0-1.08-.32-1.08-1.08V76.5s-.04-1.37 1.04-1.87c.07-.04.18-.11.18-.18 0-.08-.1-.15-.36-.15h-1.98c-.75 0-1.08-.32-1.08-1.08v-.29c0-.75.33-1.08 1.08-1.08zm16.37 13.13V76.7s0-5 5-5c2.16 0 3.9 1.04 4.4 2.12.03.08.1.18.18.18.07 0 .14-.1.14-.36v-8.63c0-.76.32-1.08 1.08-1.08h.65c.75 0 1.08.32 1.08 1.08v23.75c0 .76-.33 1.08-1.08 1.08h-.65c-.76 0-1.08-.32-1.08-1.08v-.72c0-.25-.07-.36-.14-.36-.08 0-.15.11-.18.18-.5 1.08-2.24 2.13-4.4 2.13-5 0-5-5-5-5zm2.8-8.28v8.28s0 2.2 3.28 2.2c1.8 0 3.64-1.08 3.64-3.28v-6.12c0-2.2-1.84-3.27-3.64-3.27-3.27 0-3.27 2.2-3.27 2.2zm21.61-3.81c0-.76.33-1.08 1.08-1.08h.65c.76 0 1.08.32 1.08 1.08l-.04 11.95s0 2.2 2.2 2.2h2.52c2.09 0 2.2-1.88 2.2-2.06v-12.1c0-.75.32-1.07 1.07-1.07h.65c.76 0 1.08.32 1.08 1.08v10.9c0 1.84-.68 2.88-1.76 3.39-.07.03-.18.1-.18.18 0 .07.1.14.36.14h1.98c.75 0 1.08.33 1.08 1.08v.18c0 .76-.33 1.08-1.08 1.08h-7.92c-5 0-5-5-5-5zm24.7 11.48c0-.76.32-1.08 1.08-1.12h.57c.8 0 1.08.4 1.08 1.05v.36c0 1.58 1.8 2.63 3.14 2.63 1.25 0 2.91-.65 2.91-2.1 0-3.48-8.35-3.38-8.35-8.45 0-3.24 2.41-5.15 5.44-5.15 2.8 0 5.1 1.73 5.1 4.72v.18c0 .75-.32 1.08-1.07 1.11h-.58c-.8 0-1.08-.4-1.08-1.04v-.36c0-.86-1.15-1.87-2.48-1.87-1.26 0-2.34.79-2.34 2.23 0 3.06 8.13 2.77 8.13 8.64 0 3.02-2.91 4.79-5.58 4.79-2.8 0-5.97-1.73-5.97-5.44zm23.38-11.63c0-.75.33-1.08 1.08-1.08h1.05c.75 0 1.08-.32 1.08-1.08V66.8c0-.75.36-1.08 1.11-1.08h.72c.76 0 1.08.33 1.08 1.08v3.78c0 .76.25 1.08 1.01 1.08h2.52c.76 0 1.08.33 1.08 1.08v.54c0 .76-.32 1.08-1.08 1.08h-2.56c-.75 0-1.08.33-1.08 1.08v9.5c.04.47.33 2.1 2.2 2.1h1.48c.75 0 1.08.32 1.08 1.07v.65c0 .76-.33 1.08-1.08 1.08h-1.48c-4.46 0-5-3.96-5-4.82v-9.58c0-.75-.33-1.08-1.08-1.08h-1.05c-.75 0-1.08-.32-1.08-1.08zm24.8 14.58c.76 0 1.09-.32 1.09-1.08l-.04-13.32c0-.75.32-1.08 1.08-1.08h.65c.75 0 1.08.33 1.08 1.08v.72c0 .26.07.36.14.36s.15-.1.18-.18c.5-1.08 2.23-2.12 4.4-2.12h.75c.76 0 1.08.32 1.08 1.08v.65c0 .75-.32 1.08-1.08 1.08h-1.84c-1.8 0-3.52 1.08-3.52 3.27v8.46c0 .76.32 1.08 1.08 1.08h2.2c.75 0 1.07.43 1.07 1.3 0 .75-.32 1.22-1.08 1.22h-8.17c-.75 0-1.08-.47-1.08-1.33 0-.76.33-1.19 1.08-1.19zm24.03-15.48h4.79c.75 0 1.08.33 1.08 1.08v15.84c0 .76-.33 1.08-1.08 1.08h-.72c-.76 0-1.08-.32-1.08-1.08V75.44c0-.75-.33-1.08-1.08-1.08h-1.91c-.76 0-1.08-.43-1.08-1.18 0-.87.32-1.34 1.08-1.34zm3.89-8.67a2.8 2.8 0 0 1 2.77 2.77 2.77 2.77 0 0 1-2.77 2.74 2.73 2.73 0 0 1-2.74-2.74 2.77 2.77 0 0 1 2.74-2.77zm15.33 21.81V76.7s0-5 5-5c2.16 0 3.9 1.04 4.4 2.12.03.08.1.18.18.18.07 0 .14-.1.14-.36v-.72c0-.75.32-1.08 1.08-1.08h.65c.75 0 1.08.33 1.08 1.08v15.84c0 .76-.33 1.08-1.08 1.08h-.65c-.76 0-1.08-.32-1.08-1.08v-.72c0-.25-.07-.36-.14-.36-.08 0-.15.11-.18.18-.5 1.08-2.24 2.13-4.4 2.13-5 0-5-5-5-5zm2.8-8.28v8.28s0 2.2 3.28 2.2c1.8 0 3.64-1.08 3.64-3.28v-6.12c0-2.2-1.84-3.27-3.64-3.27-3.27 0-3.27 2.2-3.27 2.2zm22.86-12.05h4.8c.75 0 1.07.46 1.07 1.33v20.26c0 .76.33 1.08 1.08 1.08h1.95c.75 0 1.08.43 1.08 1.3 0 .75-.33 1.22-1.08 1.22h-8.9c-.75 0-1.08-.47-1.08-1.33 0-.76.33-1.19 1.08-1.19h1.91c.76 0 1.08-.32 1.08-1.08v-18c0-.75-.32-1.08-1.08-1.08h-1.9c-.76 0-1.09-.43-1.09-1.18 0-.87.33-1.33 1.08-1.33zm-207.76 37c3.06 0 7.3 1.25 7.3 7.52v10.15c0 6.26-4.24 7.52-7.3 7.52h-5.65c-.68 0-.97-.29-.97-.97v-23.25c0-.69.29-.97.97-.97zm4.6 7.2c0-2.6-1.4-4.54-4.85-4.54h-2.52c-.83 0-1.19.36-1.19 1.19v17.49c0 .83.36 1.19 1.19 1.19h2.52c3.45 0 4.86-1.95 4.86-4.54zm17.95 10.54c-.76 0-1.08.32-1.08 1.08v1.4s0 2.2 2.2 2.2h6.08c.75 0 1.08.32 1.08 1.08v.61c0 .76-.33 1.08-1.08 1.08h-6.09c-5 0-5-5-5-5v-8s0-5 5-5h2.88c5 0 5 5 5 5v2.31c0 2.27-.96 3.24-3.23 3.24zm1.11-7.77c-2.2 0-2.2 2.2-2.2 2.2v1.86c0 .76.33 1.08 1.09 1.08h5.1c.77 0 1.09-.32 1.09-1.08v-1.87s0-2.2-2.2-2.2zm19.08 9.75c0-.76.32-1.08 1.08-1.12h.58c.79 0 1.08.4 1.08 1.05v.36c0 1.58 1.8 2.63 3.13 2.63 1.26 0 2.91-.65 2.91-2.1 0-3.48-8.35-3.38-8.35-8.45 0-3.24 2.41-5.15 5.44-5.15 2.8 0 5.11 1.73 5.11 4.72v.18c0 .75-.32 1.08-1.08 1.11h-.58c-.79 0-1.08-.4-1.08-1.04v-.36c0-.86-1.15-1.87-2.48-1.87-1.26 0-2.34.79-2.34 2.23 0 3.06 8.14 2.77 8.14 8.64 0 3.02-2.92 4.79-5.58 4.79-2.81 0-5.98-1.73-5.98-5.44zm24.84-12.53h4.79c.75 0 1.08.33 1.08 1.08v15.84c0 .76-.33 1.08-1.08 1.08h-.72c-.76 0-1.08-.32-1.08-1.08v-13.32c0-.75-.33-1.08-1.08-1.08h-1.9c-.77 0-1.09-.43-1.09-1.18 0-.87.32-1.34 1.08-1.34zm3.89-8.67a2.8 2.8 0 0 1 2.77 2.77 2.77 2.77 0 0 1-2.77 2.74 2.73 2.73 0 0 1-2.74-2.74 2.77 2.77 0 0 1 2.74-2.77zm17.13 32.14c0-.75.33-1.08 1.08-1.08H270c1.88 0 2.2-1.62 2.2-2.2v-5.43c0-.25-.07-.36-.14-.36-.08 0-.15.11-.18.18-.5 1.08-2.24 2.13-4.4 2.13-5 0-5-5-5-5v-6.7s0-5 5-5h8.6c.76 0 1.09.32 1.09 1.07v.3c0 .75-.33 1.07-1.08 1.07h-1.98c-.25 0-.36.07-.36.15 0 .07.1.14.18.18 1.08.5 1.04 1.87 1.04 1.87l.04 15.7c0 .78-.5 4.85-5 4.85h-4.65c-.75 0-1.08-.32-1.08-1.08zm7.92-12.85l-.04-5.61c0-1.15-.9-2.2-2.2-2.2h-2.48c-2.2 0-2.2 2.2-2.2 2.2v6.7s0 2.19 3.28 2.19c1.8 0 3.64-1.08 3.64-3.28zm24.58-10.62c5 0 5 5 5 5v11.92c0 .76-.32 1.08-1.07 1.08h-.65c-.76 0-1.08-.32-1.08-1.08v-11.91s0-2.2-2.2-2.2h-2.51c-2.2 0-2.2 2.2-2.2 2.2v11.91c0 .76-.32 1.08-1.08 1.08h-.65c-.75 0-1.08-.32-1.08-1.08V113.5s-.03-1.37 1.05-1.87c.07-.04.18-.11.18-.18 0-.08-.11-.15-.36-.15h-1.98c-.76 0-1.08-.32-1.08-1.08v-.29c0-.75.32-1.08 1.08-1.08z"/></defs><g><g transform="translate(-100 -63)"><use fill="#9aa5a9" xlink:href="#f0ska"/></g></g></svg>